<svg width="121" height="26" viewBox="0 0 121 26" fill="none" xmlns="http://www.w3.org/2000/svg">
<path d="M0.476 0.0534163H6.452C8.492 0.0534163 9.98 0.533417 10.916 1.49342C11.852 2.42942 12.32 3.88142 12.32 5.84942V6.85742C12.32 8.15342 12.104 9.20942 11.672 10.0254C11.264 10.8414 10.628 11.4294 9.764 11.7894V11.8614C11.732 12.5334 12.716 14.2854 12.716 17.1174V19.2774C12.716 21.2214 12.2 22.7094 11.168 23.7414C10.16 24.7494 8.672 25.2534 6.704 25.2534H0.476V0.0534163ZM5.984 10.3134C6.776 10.3134 7.364 10.1094 7.748 9.70142C8.156 9.29342 8.36 8.60942 8.36 7.64942V6.24542C8.36 5.33342 8.192 4.67342 7.856 4.26542C7.544 3.85742 7.04 3.65342 6.344 3.65342H4.436V10.3134H5.984ZM6.704 21.6534C7.4 21.6534 7.916 21.4734 8.252 21.1134C8.588 20.7294 8.756 20.0814 8.756 19.1694V16.9734C8.756 15.8214 8.552 15.0294 8.144 14.5974C7.76 14.1414 7.112 13.9134 6.2 13.9134H4.436V21.6534H6.704ZM18.0907 0.0534163H23.4547L27.5587 25.2534H23.5987L22.8787 20.2494V20.3214H18.3787L17.6587 25.2534H13.9867L18.0907 0.0534163ZM22.4107 16.9014L20.6467 4.44542H20.5747L18.8467 16.9014H22.4107ZM29.4799 0.0534163H35.3479C37.3879 0.0534163 38.8759 0.533417 39.8119 1.49342C40.7479 2.42942 41.2159 3.88142 41.2159 5.84942V7.39742C41.2159 10.0134 40.3519 11.6694 38.6239 12.3654V12.4374C39.5839 12.7254 40.2559 13.3134 40.6399 14.2014C41.0479 15.0894 41.2519 16.2774 41.2519 17.7654V22.1934C41.2519 22.9134 41.2759 23.5014 41.3239 23.9574C41.3719 24.3894 41.4919 24.8214 41.6839 25.2534H37.6519C37.5079 24.8454 37.4119 24.4614 37.3639 24.1014C37.3159 23.7414 37.2919 23.0934 37.2919 22.1574V17.5494C37.2919 16.3974 37.0999 15.5934 36.7159 15.1374C36.3559 14.6814 35.7199 14.4534 34.8079 14.4534H33.4399V25.2534H29.4799V0.0534163ZM34.8799 10.8534C35.6719 10.8534 36.2599 10.6494 36.6439 10.2414C37.0519 9.83342 37.2559 9.14942 37.2559 8.18942V6.24542C37.2559 5.33342 37.0879 4.67342 36.7519 4.26542C36.4399 3.85742 35.9359 3.65342 35.2399 3.65342H33.4399V10.8534H34.8799ZM43.9994 0.0534163H49.9754C52.0154 0.0534163 53.5034 0.533417 54.4394 1.49342C55.3754 2.42942 55.8434 3.88142 55.8434 5.84942V6.85742C55.8434 8.15342 55.6274 9.20942 55.1954 10.0254C54.7874 10.8414 54.1514 11.4294 53.2874 11.7894V11.8614C55.2554 12.5334 56.2394 14.2854 56.2394 17.1174V19.2774C56.2394 21.2214 55.7234 22.7094 54.6914 23.7414C53.6834 24.7494 52.1954 25.2534 50.2274 25.2534H43.9994V0.0534163ZM49.5074 10.3134C50.2994 10.3134 50.8874 10.1094 51.2714 9.70142C51.6794 9.29342 51.8834 8.60942 51.8834 7.64942V6.24542C51.8834 5.33342 51.7154 4.67342 51.3794 4.26542C51.0674 3.85742 50.5634 3.65342 49.8674 3.65342H47.9594V10.3134H49.5074ZM50.2274 21.6534C50.9234 21.6534 51.4394 21.4734 51.7754 21.1134C52.1114 20.7294 52.2794 20.0814 52.2794 19.1694V16.9734C52.2794 15.8214 52.0754 15.0294 51.6674 14.5974C51.2834 14.1414 50.6354 13.9134 49.7234 13.9134H47.9594V21.6534H50.2274ZM58.5541 0.0534163H69.3541V3.65342H62.5141V10.3134H67.9501V13.9134H62.5141V21.6534H69.3541V25.2534H58.5541V0.0534163ZM74.6923 0.0534163H80.0563L84.1603 25.2534H80.2003L79.4803 20.2494V20.3214H74.9803L74.2603 25.2534H70.5883L74.6923 0.0534163ZM79.0123 16.9014L77.2483 4.44542H77.1763L75.4482 16.9014H79.0123ZM86.0815 0.0534163H91.9495C93.9895 0.0534163 95.4775 0.533417 96.4135 1.49342C97.3495 2.42942 97.8175 3.88142 97.8175 5.84942V7.39742C97.8175 10.0134 96.9535 11.6694 95.2255 12.3654V12.4374C96.1855 12.7254 96.8575 13.3134 97.2415 14.2014C97.6495 15.0894 97.8535 16.2774 97.8535 17.7654V22.1934C97.8535 22.9134 97.8775 23.5014 97.9255 23.9574C97.9735 24.3894 98.0935 24.8214 98.2855 25.2534H94.2535C94.1095 24.8454 94.0135 24.4614 93.9655 24.1014C93.9175 23.7414 93.8935 23.0934 93.8935 22.1574V17.5494C93.8935 16.3974 93.7015 15.5934 93.3175 15.1374C92.9575 14.6814 92.3215 14.4534 91.4095 14.4534H90.0415V25.2534H86.0815V0.0534163ZM91.4815 10.8534C92.2735 10.8534 92.8615 10.6494 93.2455 10.2414C93.6535 9.83342 93.8575 9.14942 93.8575 8.18942V6.24542C93.8575 5.33342 93.6895 4.67342 93.3535 4.26542C93.0415 3.85742 92.5375 3.65342 91.8415 3.65342H90.0415V10.8534H91.4815ZM100.601 0.0534163H104.561V25.2534H100.601V0.0534163ZM110.587 0.0534163H115.951L120.055 25.2534H116.095L115.375 20.2494V20.3214H110.875L110.155 25.2534H106.483L110.587 0.0534163ZM114.907 16.9014L113.143 4.44542H113.071L111.343 16.9014H114.907Z" fill="#EDEDED"/>
</svg>
