<svg width="121" height="26" viewBox="0 0 121 26" fill="none" xmlns="http://www.w3.org/2000/svg">
<path d="M0.476 0.799998H6.452C8.492 0.799998 9.98 1.28 10.916 2.24C11.852 3.176 12.32 4.628 12.32 6.596V7.604C12.32 8.9 12.104 9.956 11.672 10.772C11.264 11.588 10.628 12.176 9.764 12.536V12.608C11.732 13.28 12.716 15.032 12.716 17.864V20.024C12.716 21.968 12.2 23.456 11.168 24.488C10.16 25.496 8.672 26 6.704 26H0.476V0.799998ZM5.984 11.06C6.776 11.06 7.364 10.856 7.748 10.448C8.156 10.04 8.36 9.356 8.36 8.396V6.992C8.36 6.08 8.192 5.42 7.856 5.012C7.544 4.604 7.04 4.4 6.344 4.4H4.436V11.06H5.984ZM6.704 22.4C7.4 22.4 7.916 22.22 8.252 21.86C8.588 21.476 8.756 20.828 8.756 19.916V17.72C8.756 16.568 8.552 15.776 8.144 15.344C7.76 14.888 7.112 14.66 6.2 14.66H4.436V22.4H6.704ZM18.0907 0.799998H23.4547L27.5587 26H23.5987L22.8787 20.996V21.068H18.3787L17.6587 26H13.9867L18.0907 0.799998ZM22.4107 17.648L20.6467 5.192H20.5747L18.8467 17.648H22.4107ZM29.4799 0.799998H35.3479C37.3879 0.799998 38.8759 1.28 39.8119 2.24C40.7479 3.176 41.2159 4.628 41.2159 6.596V8.144C41.2159 10.76 40.3519 12.416 38.6239 13.112V13.184C39.5839 13.472 40.2559 14.06 40.6399 14.948C41.0479 15.836 41.2519 17.024 41.2519 18.512V22.94C41.2519 23.66 41.2759 24.248 41.3239 24.704C41.3719 25.136 41.4919 25.568 41.6839 26H37.6519C37.5079 25.592 37.4119 25.208 37.3639 24.848C37.3159 24.488 37.2919 23.84 37.2919 22.904V18.296C37.2919 17.144 37.0999 16.34 36.7159 15.884C36.3559 15.428 35.7199 15.2 34.8079 15.2H33.4399V26H29.4799V0.799998ZM34.8799 11.6C35.6719 11.6 36.2599 11.396 36.6439 10.988C37.0519 10.58 37.2559 9.896 37.2559 8.936V6.992C37.2559 6.08 37.0879 5.42 36.7519 5.012C36.4399 4.604 35.9359 4.4 35.2399 4.4H33.4399V11.6H34.8799ZM43.9994 0.799998H49.9754C52.0154 0.799998 53.5034 1.28 54.4394 2.24C55.3754 3.176 55.8434 4.628 55.8434 6.596V7.604C55.8434 8.9 55.6274 9.956 55.1954 10.772C54.7874 11.588 54.1514 12.176 53.2874 12.536V12.608C55.2554 13.28 56.2394 15.032 56.2394 17.864V20.024C56.2394 21.968 55.7234 23.456 54.6914 24.488C53.6834 25.496 52.1954 26 50.2274 26H43.9994V0.799998ZM49.5074 11.06C50.2994 11.06 50.8874 10.856 51.2714 10.448C51.6794 10.04 51.8834 9.356 51.8834 8.396V6.992C51.8834 6.08 51.7154 5.42 51.3794 5.012C51.0674 4.604 50.5634 4.4 49.8674 4.4H47.9594V11.06H49.5074ZM50.2274 22.4C50.9234 22.4 51.4394 22.22 51.7754 21.86C52.1114 21.476 52.2794 20.828 52.2794 19.916V17.72C52.2794 16.568 52.0754 15.776 51.6674 15.344C51.2834 14.888 50.6354 14.66 49.7234 14.66H47.9594V22.4H50.2274ZM58.5541 0.799998H69.3541V4.4H62.5141V11.06H67.9501V14.66H62.5141V22.4H69.3541V26H58.5541V0.799998ZM74.6923 0.799998H80.0563L84.1603 26H80.2003L79.4803 20.996V21.068H74.9803L74.2603 26H70.5883L74.6923 0.799998ZM79.0123 17.648L77.2483 5.192H77.1763L75.4482 17.648H79.0123ZM86.0815 0.799998H91.9495C93.9895 0.799998 95.4775 1.28 96.4135 2.24C97.3495 3.176 97.8175 4.628 97.8175 6.596V8.144C97.8175 10.76 96.9535 12.416 95.2255 13.112V13.184C96.1855 13.472 96.8575 14.06 97.2415 14.948C97.6495 15.836 97.8535 17.024 97.8535 18.512V22.94C97.8535 23.66 97.8775 24.248 97.9255 24.704C97.9735 25.136 98.0935 25.568 98.2855 26H94.2535C94.1095 25.592 94.0135 25.208 93.9655 24.848C93.9175 24.488 93.8935 23.84 93.8935 22.904V18.296C93.8935 17.144 93.7015 16.34 93.3175 15.884C92.9575 15.428 92.3215 15.2 91.4095 15.2H90.0415V26H86.0815V0.799998ZM91.4815 11.6C92.2735 11.6 92.8615 11.396 93.2455 10.988C93.6535 10.58 93.8575 9.896 93.8575 8.936V6.992C93.8575 6.08 93.6895 5.42 93.3535 5.012C93.0415 4.604 92.5375 4.4 91.8415 4.4H90.0415V11.6H91.4815ZM100.601 0.799998H104.561V26H100.601V0.799998ZM110.587 0.799998H115.951L120.055 26H116.095L115.375 20.996V21.068H110.875L110.155 26H106.483L110.587 0.799998ZM114.907 17.648L113.143 5.192H113.071L111.343 17.648H114.907Z" fill="white"/>
</svg>
