<svg width="32" height="23" viewBox="0 0 32 23" fill="none" xmlns="http://www.w3.org/2000/svg">
<path d="M31.3307 3.90788C31.1499 3.22553 30.7934 2.60275 30.2968 2.1019C29.8003 1.60106 29.1811 1.23973 28.5013 1.0541C26.0067 0.379394 16 0.379395 16 0.379395C16 0.379395 5.99333 0.379394 3.49733 1.0541C2.81788 1.24006 2.19906 1.60152 1.70277 2.10232C1.20648 2.60314 0.850122 3.22575 0.669333 3.90788C0 6.42497 0 11.6756 0 11.6756C0 11.6756 0 16.9262 0.669333 19.4433C0.850115 20.1257 1.20663 20.7485 1.70319 21.2493C2.19974 21.7501 2.8189 22.1114 3.49867 22.2971C5.99333 22.9718 16 22.9718 16 22.9718C16 22.9718 26.0067 22.9718 28.5027 22.2971C29.1825 22.1116 29.8017 21.7503 30.2983 21.2495C30.7949 20.7486 31.1513 20.1257 31.332 19.4433C32 16.9262 32 11.6756 32 11.6756C32 11.6756 32 6.42497 31.3307 3.90788ZM12.7267 16.4426V6.90865L21.0907 11.6756L12.7267 16.4426Z" fill="white"/>
</svg>
