<svg width="32" height="33" viewBox="0 0 32 33" fill="none" xmlns="http://www.w3.org/2000/svg">
<path d="M16 0.643066C11.6533 0.643066 11.1107 0.663107 9.404 0.739261C7.7 0.819423 6.54 1.08797 5.52 1.48477C4.468 1.8936 3.57467 2.44271 2.68533 3.33384C1.796 4.22499 1.24667 5.1188 0.84 6.17426C0.444 7.19633 0.174667 8.35869 0.096 10.0661C0.016 11.7763 0 12.32 0 16.6755C0 21.031 0.02 21.5747 0.096 23.2849C0.176 24.9911 0.444 26.1547 0.84 27.1768C1.248 28.2296 1.796 29.126 2.68533 30.0172C3.57467 30.907 4.46667 31.4587 5.52 31.8663C6.54133 32.2618 7.70133 32.5329 9.404 32.6118C11.1107 32.6919 11.6533 32.708 16 32.708C20.3467 32.708 20.8893 32.6879 22.596 32.6118C24.2987 32.5316 25.46 32.2618 26.48 31.8663C27.5307 31.4574 28.4253 30.907 29.3147 30.0172C30.2027 29.126 30.7533 28.2336 31.16 27.1768C31.5547 26.1547 31.8253 24.9911 31.904 23.2849C31.984 21.5747 32 21.031 32 16.6755C32 12.32 31.98 11.7763 31.904 10.0661C31.824 8.36002 31.5547 7.195 31.16 6.17426C30.752 5.12013 30.2027 4.22499 29.3147 3.33384C28.4253 2.44271 27.5347 1.89227 26.48 1.48477C25.46 1.08797 24.2987 0.818088 22.596 0.739261C20.8893 0.659099 20.3467 0.643066 16 0.643066ZM16 3.52891C20.2707 3.52891 20.78 3.55028 22.4667 3.62377C24.0267 3.69725 24.8733 3.95644 25.436 4.17822C26.1853 4.46814 26.716 4.81551 27.2787 5.37532C27.8373 5.93645 28.184 6.46953 28.4733 7.22038C28.692 7.78419 28.9533 8.63257 29.024 10.1957C29.1 11.8871 29.1173 12.3949 29.1173 16.6755C29.1173 20.9562 29.0973 21.4652 29.0187 23.1553C28.9373 24.7185 28.6773 25.5668 28.4573 26.1307C28.1587 26.8815 27.8187 27.4133 27.2587 27.9771C26.7 28.5368 26.16 28.8842 25.4187 29.1741C24.8587 29.3933 23.9987 29.6551 22.4387 29.7259C20.74 29.8021 20.24 29.8194 15.96 29.8194C11.6787 29.8194 11.1787 29.7994 9.48133 29.7206C7.92 29.6391 7.06 29.3785 6.5 29.1581C5.74133 28.8589 5.22 28.5182 4.66133 27.9571C4.1 27.3972 3.74133 26.8561 3.46133 26.1133C3.24133 25.5522 2.98267 24.6904 2.90133 23.1273C2.84133 21.4439 2.82 20.9241 2.82 16.6555C2.82 12.3855 2.84133 11.8645 2.90133 10.161C2.98267 8.59784 3.24133 7.73743 3.46133 7.17629C3.74133 6.41475 4.1 5.89369 4.66133 5.33123C5.22 4.77142 5.74133 4.41069 6.5 4.13146C7.06 3.90968 7.90133 3.64915 9.46133 3.56899C11.1613 3.50887 11.6613 3.48883 15.94 3.48883L16 3.52891ZM16 8.44285C11.46 8.44285 7.784 12.1303 7.784 16.6755C7.784 21.2247 11.464 24.9082 16 24.9082C20.54 24.9082 24.216 21.2207 24.216 16.6755C24.216 12.1263 20.536 8.44285 16 8.44285ZM16 22.0196C13.0533 22.0196 10.6667 19.6282 10.6667 16.6755C10.6667 13.7228 13.0533 11.3314 16 11.3314C18.9467 11.3314 21.3333 13.7228 21.3333 16.6755C21.3333 19.6282 18.9467 22.0196 16 22.0196ZM26.4613 8.1182C26.4613 9.18035 25.6 10.0421 24.5413 10.0421C23.4813 10.0421 22.6213 9.17902 22.6213 8.1182C22.6213 7.05738 23.4827 6.19564 24.5413 6.19564C25.5987 6.1943 26.4613 7.05738 26.4613 8.1182Z" fill="white"/>
</svg>
